<svg xmlns="http://www.w3.org/2000/svg" xmlns:xlink="http://www.w3.org/1999/xlink" width="500" height="366.667" viewBox="0 0 375 375" version="1.2"><defs><symbol overflow="visible" id="a"><path d="M25.547-40.422h8.61v25.828c0 2.012-.423 3.95-1.266 5.813a15.764 15.764 0 01-3.422 4.906c-1.438 1.406-3.121 2.527-5.047 3.36-1.918.831-3.977 1.25-6.172 1.25-2.168 0-4.227-.419-6.172-1.25-1.937-.833-3.621-1.954-5.047-3.36a16.28 16.28 0 01-3.39-4.906 14.046 14.046 0 01-1.25-5.813v-25.828H11v24.11a9.2 9.2 0 00.563 3.234 9.42 9.42 0 001.546 2.672 7.205 7.205 0 002.313 1.86 6.227 6.227 0 002.828.671 6.14 6.14 0 002.844-.672 7.746 7.746 0 002.312-1.86 8.938 8.938 0 001.563-2.671 9.034 9.034 0 00.578-3.235zm0 0"/></symbol><symbol overflow="visible" id="b"><path d="M1.313-40.422h29.25v7.86h-10.33V0h-8.609v-32.563H1.312zm0 0"/></symbol><symbol overflow="visible" id="c"><path d="M19.047-40.422c2.926 0 5.508.531 7.75 1.594 2.238 1.062 4.11 2.512 5.61 4.344 1.507 1.824 2.648 3.968 3.421 6.437.781 2.469 1.172 5.09 1.172 7.86 0 2.812-.414 5.449-1.234 7.906-.813 2.449-1.946 4.586-3.391 6.406-1.438 1.824-3.148 3.262-5.125 4.313C25.27-.52 23.125 0 20.812 0H2.735v-40.422zm.047 32.61c1.633 0 3.031-.333 4.187-1a8.536 8.536 0 002.89-2.704c.759-1.144 1.317-2.457 1.673-3.937.363-1.477.547-3.035.547-4.672 0-1.633-.172-3.203-.516-4.703-.336-1.5-.883-2.817-1.64-3.953a8.709 8.709 0 00-2.922-2.75c-1.18-.688-2.586-1.032-4.22-1.032h-7.687v24.75zm0 0"/></symbol><symbol overflow="visible" id="d"><path d="M27.531-40.422L44.421 0h-9.358l-3.641-8.672H14.25L10.656 0H1.25l16.875-40.422zm.64 23.89L22.86-29.25l-5.297 12.719zm0 0"/></symbol><symbol overflow="visible" id="e"><path d="M8.813-15.25c1.218 0 2.32.2 3.312.594A7.53 7.53 0 0114.688-13c.707.7 1.253 1.547 1.64 2.547.395.992.594 2.09.594 3.297 0 .71-.07 1.32-.203 1.828-.125.5-.29.922-.485 1.266a3.007 3.007 0 01-1.203 1.188 2.664 2.664 0 01-1.187.265c-.469 0-.922-.11-1.36-.329a3.516 3.516 0 01-1.14-.984 3.999 3.999 0 01-1.25.875 3.772 3.772 0 01-1.563.313 4.15 4.15 0 01-1.656-.329 4.197 4.197 0 01-1.328-.921 4.523 4.523 0 01-.906-1.344 4.102 4.102 0 01-.329-1.64c0-.595.11-1.145.329-1.657.226-.508.53-.957.906-1.344a4.093 4.093 0 011.328-.906 4.03 4.03 0 011.656-.344c.446 0 .875.074 1.281.219.407.137.77.328 1.094.578 0-.082.008-.164.031-.25.032-.062.067-.129.11-.203a.517.517 0 01.25-.172l1.64.172-.374 4.484v.172c0 .25.035.48.109.688.07.199.172.367.297.5.133.136.273.246.422.328.156.074.304.11.453.11.3 0 .547-.208.734-.626.195-.414.317-.957.36-1.625 0-1.176-.172-2.172-.516-2.984-.344-.82-.805-1.488-1.375-2a5.004 5.004 0 00-1.953-1.094 7.665 7.665 0 00-2.281-.344 5.65 5.65 0 00-2.344.5 6.39 6.39 0 00-3.281 3.36A6.006 6.006 0 002.703-7a6.3 6.3 0 00.469 2.453c.32.75.765 1.402 1.328 1.953.57.543 1.242.969 2.016 1.281.78.305 1.64.454 2.578.454.844 0 1.633-.157 2.375-.47L12.219.5a8.022 8.022 0 01-3.14.64c-1.22 0-2.345-.21-3.376-.624a8.154 8.154 0 01-2.64-1.704 7.731 7.731 0 01-1.735-2.578C.922-4.766.718-5.844.718-7c0-1.102.212-2.156.641-3.156a8.49 8.49 0 011.735-2.625 8.279 8.279 0 012.578-1.797 7.561 7.561 0 013.14-.672zM8.53-4.719c.344 0 .64-.066.89-.203.259-.133.47-.305.626-.516.164-.207.285-.44.36-.703.07-.27.109-.546.109-.828 0-.27-.04-.539-.11-.812a2.04 2.04 0 00-.36-.719 1.861 1.861 0 00-1.515-.719c-.312 0-.605.063-.875.188a2.264 2.264 0 00-.718.484c-.2.2-.36.434-.485.703a2.186 2.186 0 00-.172.875c0 .305.055.594.172.875.125.274.285.512.484.719.208.2.446.36.72.484.269.118.562.172.874.172zm0 0"/></symbol><clipPath id="f"><path d="M44.121 178.941h45v45h-45zm0 0"/></clipPath></defs><use xlink:href="#a" x="91.016" y="221.543" fill="#151922"/><use xlink:href="#b" x="127.503" y="221.543" fill="#151922"/><use xlink:href="#c" x="159.372" y="221.543" fill="#151922"/><use xlink:href="#d" x="198.31" y="221.543" fill="#151922"/><use xlink:href="#b" x="243.975" y="221.543" fill="#151922"/><use xlink:href="#d" x="275.844" y="221.543" fill="#151922"/><use xlink:href="#e" x="313.642" y="181.35" fill="#151922"/><g clip-path="url(#f)"><path d="M89.023 190.91c-2.199-5.457-6.414-9.672-11.87-11.87a1.047 1.047 0 00-.77 0 1.144 1.144 0 00-.477.476l-.957 2.199c-2.394-1.05-4.98-1.625-7.66-1.817H66.14c-12.16 0-22.019 9.864-22.019 22.02v1.055c.574 11.68 10.242 20.968 22.02 20.968 5.746 0 10.914-2.203 14.84-5.843l-16.18-16.18H46.035c0-11.106 8.996-20.106 20.106-20.106v18.766l16.18 16.18c3.64-3.926 5.84-9.094 5.84-14.84 0-3.063-.669-6.031-1.817-8.809l2.199-.957c.195-.097.387-.285.48-.476.098-.29.098-.48 0-.766zm-4.402.766c0 .094 0 0 0 0 0 .094 0 .094 0 0l-14.172 5.836 6.801-16.367c4.21 2.007 7.66 5.359 9.574 9.574zm0 0" fill="#151922"/></g></svg>