<svg xmlns="http://www.w3.org/2000/svg" xmlns:xlink="http://www.w3.org/1999/xlink" width="500" height="500" viewBox="0 0 375 375" version="1.2"><defs><symbol overflow="visible" id="a"><path d="M21.781-41c2.739 0 5.32.555 7.75 1.656a20.084 20.084 0 016.36 4.516c1.8 1.898 3.222 4.101 4.265 6.61 1.051 2.511 1.578 5.187 1.578 8.03 0 2.813-.527 5.497-1.578 8.047-1.043 2.543-2.465 4.766-4.265 6.672-1.805 1.899-3.922 3.407-6.36 4.532C27.101.175 24.52.734 21.781.734c-2.742 0-5.328-.558-7.765-1.671-2.43-1.125-4.54-2.633-6.329-4.532-1.78-1.906-3.199-4.129-4.25-6.672a21.073 21.073 0 01-1.562-8.046c0-2.844.52-5.52 1.563-8.032 1.05-2.508 2.468-4.71 4.25-6.61a19.866 19.866 0 016.328-4.515C16.453-40.445 19.039-41 21.78-41zm0 33.125c1.563 0 3.024-.32 4.39-.969a11.433 11.433 0 003.579-2.64 12.55 12.55 0 002.422-3.907c.594-1.488.89-3.086.89-4.796 0-1.708-.296-3.313-.89-4.813-.586-1.5-1.39-2.813-2.422-3.938a11.421 11.421 0 00-3.578-2.656 10.16 10.16 0 00-4.39-.968c-1.563 0-3.028.324-4.391.968a11.53 11.53 0 00-3.594 2.657C12.773-27.813 11.969-26.5 11.375-25c-.594 1.5-.89 3.105-.89 4.813 0 1.71.296 3.308.89 4.796a12.846 12.846 0 002.422 3.907 11.542 11.542 0 003.594 2.64c1.363.649 2.828.969 4.39.969zm0 0"/></symbol><symbol overflow="visible" id="b"><path d="M25.547-40.422h8.61v25.828c0 2.012-.423 3.95-1.266 5.813a15.764 15.764 0 01-3.422 4.906c-1.438 1.406-3.121 2.527-5.047 3.36-1.918.831-3.977 1.25-6.172 1.25-2.168 0-4.227-.419-6.172-1.25-1.937-.833-3.621-1.954-5.047-3.36a16.28 16.28 0 01-3.39-4.906 14.046 14.046 0 01-1.25-5.813v-25.828H11v24.11a9.2 9.2 0 00.563 3.234 9.42 9.42 0 001.546 2.672 7.205 7.205 0 002.313 1.86 6.227 6.227 0 002.828.671 6.14 6.14 0 002.844-.672 7.746 7.746 0 002.312-1.86 8.938 8.938 0 001.563-2.671 9.034 9.034 0 00.578-3.235zm0 0"/></symbol><symbol overflow="visible" id="c"><path d="M1.313-40.422h29.25v7.86h-10.33V0h-8.609v-32.563H1.312zm0 0"/></symbol><symbol overflow="visible" id="d"><path d="M19.047-40.422c2.926 0 5.508.531 7.75 1.594 2.238 1.062 4.11 2.512 5.61 4.344 1.507 1.824 2.648 3.968 3.421 6.437.781 2.469 1.172 5.09 1.172 7.86 0 2.812-.414 5.449-1.234 7.906-.813 2.449-1.946 4.586-3.391 6.406-1.438 1.824-3.148 3.262-5.125 4.313C25.27-.52 23.125 0 20.812 0H2.735v-40.422zm.047 32.61c1.633 0 3.031-.333 4.187-1a8.536 8.536 0 002.89-2.704c.759-1.144 1.317-2.457 1.673-3.937.363-1.477.547-3.035.547-4.672 0-1.633-.172-3.203-.516-4.703-.336-1.5-.883-2.817-1.64-3.953a8.709 8.709 0 00-2.922-2.75c-1.18-.688-2.586-1.032-4.22-1.032h-7.687v24.75zm0 0"/></symbol><symbol overflow="visible" id="e"><path d="M27.531-40.422L44.421 0h-9.358l-3.641-8.672H14.25L10.656 0H1.25l16.875-40.422zm.64 23.89L22.86-29.25l-5.297 12.719zm0 0"/></symbol><symbol overflow="visible" id="f"><path d="M8.813-15.25c1.218 0 2.32.2 3.312.594A7.53 7.53 0 0114.688-13c.707.7 1.253 1.547 1.64 2.547.395.992.594 2.09.594 3.297 0 .71-.07 1.32-.203 1.828-.125.5-.29.922-.485 1.266a3.007 3.007 0 01-1.203 1.188 2.664 2.664 0 01-1.187.265c-.469 0-.922-.11-1.36-.329a3.516 3.516 0 01-1.14-.984 3.999 3.999 0 01-1.25.875 3.772 3.772 0 01-1.563.313 4.15 4.15 0 01-1.656-.329 4.197 4.197 0 01-1.328-.921 4.523 4.523 0 01-.906-1.344 4.102 4.102 0 01-.329-1.64c0-.595.11-1.145.329-1.657.226-.508.53-.957.906-1.344a4.093 4.093 0 011.328-.906 4.03 4.03 0 011.656-.344c.446 0 .875.074 1.281.219.407.137.77.328 1.094.578 0-.082.008-.164.031-.25.032-.062.067-.129.11-.203a.517.517 0 01.25-.172l1.64.172-.374 4.484v.172c0 .25.035.48.109.688.07.199.172.367.297.5.133.136.273.246.422.328.156.074.304.11.453.11.3 0 .547-.208.734-.626.195-.414.317-.957.36-1.625 0-1.176-.172-2.172-.516-2.984-.344-.82-.805-1.488-1.375-2a5.004 5.004 0 00-1.953-1.094 7.665 7.665 0 00-2.281-.344 5.65 5.65 0 00-2.344.5 6.39 6.39 0 00-3.281 3.36A6.006 6.006 0 002.703-7a6.3 6.3 0 00.469 2.453c.32.75.765 1.402 1.328 1.953.57.543 1.242.969 2.016 1.281.78.305 1.64.454 2.578.454.844 0 1.633-.157 2.375-.47L12.219.5a8.022 8.022 0 01-3.14.64c-1.22 0-2.345-.21-3.376-.624a8.154 8.154 0 01-2.64-1.704 7.731 7.731 0 01-1.735-2.578C.922-4.766.718-5.844.718-7c0-1.102.212-2.156.641-3.156a8.49 8.49 0 011.735-2.625 8.279 8.279 0 012.578-1.797 7.561 7.561 0 013.14-.672zM8.53-4.719c.344 0 .64-.066.89-.203.259-.133.47-.305.626-.516.164-.207.285-.44.36-.703.07-.27.109-.546.109-.828 0-.27-.04-.539-.11-.812a2.04 2.04 0 00-.36-.719 1.861 1.861 0 00-1.515-.719c-.312 0-.605.063-.875.188a2.264 2.264 0 00-.718.484c-.2.2-.36.434-.485.703a2.186 2.186 0 00-.172.875c0 .305.055.594.172.875.125.274.285.512.484.719.208.2.446.36.72.484.269.118.562.172.874.172zm0 0"/></symbol><clipPath id="g"><path d="M9.98 158.66h80.25v80.25H9.98zm0 0"/></clipPath></defs><use xlink:href="#a" x="98.334" y="221.088" fill="#fff"/><use xlink:href="#b" x="141.947" y="221.088" fill="#fff"/><use xlink:href="#c" x="178.434" y="221.088" fill="#fff"/><use xlink:href="#d" x="210.303" y="221.088" fill="#fff"/><use xlink:href="#e" x="249.241" y="221.088" fill="#fff"/><use xlink:href="#c" x="294.907" y="221.088" fill="#fff"/><use xlink:href="#e" x="326.775" y="221.088" fill="#fff"/><use xlink:href="#f" x="352.781" y="171.425" fill="#fff"/><g clip-path="url(#g)"><path d="M90.059 180.004c-3.922-9.734-11.442-17.25-21.172-21.172-.512-.172-.852-.172-1.367 0-.34.168-.68.508-.852.856l-1.711 3.921c-4.266-1.875-8.875-2.902-13.656-3.242H49.25c-21.684 0-39.27 17.586-39.27 39.27v1.883c1.028 20.828 18.27 37.39 39.27 37.39 10.246 0 19.465-3.93 26.469-10.418l-28.856-28.855H13.395c0-19.809 16.046-35.856 35.855-35.856v33.469l28.855 28.855c6.489-7.003 10.418-16.222 10.418-26.468 0-5.461-1.195-10.758-3.242-15.707l3.922-1.707c.348-.172.688-.512.856-.852.171-.516.171-.855 0-1.367zm-7.852 1.367c0 .164 0 0 0 0 0 .164 0 .164 0 0l-25.273 10.41 12.125-29.195c7.511 3.582 13.66 9.559 17.078 17.078zm0 0" fill="#fff"/></g></svg>