<svg xmlns="http://www.w3.org/2000/svg" xmlns:xlink="http://www.w3.org/1999/xlink" width="500" height="500" viewBox="0 0 375 375" version="1.2"><defs><clipPath id="e"><path d="M58.3 155.457h29.356v17.438H58.301zm0 0"/></clipPath><clipPath id="c"><path d="M68.293 204.613v-25.246c13.59.75 24.496 11.653 25.246 25.246zm-1.488 28.301c-14.79 0-26.813-12.027-26.813-26.812 0-14.278 11.227-25.957 25.32-26.735v26.735c0 .82.668 1.492 1.493 1.492h26.734c-.777 14.09-12.457 25.32-26.734 25.32zM39.992 149.5h11.914v30.844a29.936 29.936 0 00-11.914 12.86zm-2.98 55.113H25.094v-47.668h11.918zm-14.895 0H10.2v-38.73h11.918zm44.688-28.3c-4.239 0-8.266.898-11.918 2.5v-30.805a1.49 1.49 0 00-1.489-1.488H38.5a1.49 1.49 0 00-1.488 1.488v5.96H23.605a1.49 1.49 0 00-1.488 1.489v7.45H8.711c-.82 0-1.492.667-1.492 1.488v41.707c0 .82.672 1.492 1.492 1.492h28.375c.785 15.73 13.793 28.3 29.719 28.3 16.422 0 29.789-13.367 29.789-29.792 0-16.426-13.367-29.79-29.79-29.79"/></clipPath><clipPath id="m"><path d="M10.2 225.465h23.83v2.98H10.2zm0 0"/></clipPath><clipPath id="f"><path d="M67.855 163.34a1.488 1.488 0 00-2.105 0l-7.45 7.45 2.106 2.105 6.399-6.395 4.902 4.906a1.488 1.488 0 002.106 0l10.863-10.863v6.832h2.98v-10.43h-.011a1.471 1.471 0 00-1.477-1.488H75.742v2.98h6.828l-9.808 9.81zm0 0"/></clipPath><clipPath id="g"><path d="M67.855 163.34a1.488 1.488 0 00-2.105 0l-7.45 7.45 2.106 2.105 6.399-6.395 4.902 4.906a1.488 1.488 0 002.106 0l10.863-10.863v6.832h2.98v-10.43h-.011a1.471 1.471 0 00-1.477-1.488H75.742v2.98h6.828l-9.808 9.81-4.907-4.907"/></clipPath><clipPath id="k"><path d="M10.2 219.508h23.83v2.98H10.2zm0 0"/></clipPath><clipPath id="i"><path d="M10.2 213.55h23.83v2.981H10.2zm0 0"/></clipPath><clipPath id="a"><path d="M7.219 146.52h89.375v89.375H7.219zm0 0"/></clipPath><clipPath id="b"><path d="M68.293 204.613v-25.246c13.59.75 24.496 11.653 25.246 25.246zm-1.488 28.301c-14.79 0-26.813-12.027-26.813-26.812 0-14.278 11.227-25.957 25.32-26.735v26.735c0 .82.668 1.492 1.493 1.492h26.734c-.777 14.09-12.457 25.32-26.734 25.32zM39.992 149.5h11.914v30.844a29.936 29.936 0 00-11.914 12.86zm-2.98 55.113H25.094v-47.668h11.918zm-14.895 0H10.2v-38.73h11.918zm44.688-28.3c-4.239 0-8.266.898-11.918 2.5v-30.805a1.49 1.49 0 00-1.489-1.488H38.5a1.49 1.49 0 00-1.488 1.488v5.96H23.605a1.49 1.49 0 00-1.488 1.489v7.45H8.711c-.82 0-1.492.667-1.492 1.488v41.707c0 .82.672 1.492 1.492 1.492h28.375c.785 15.73 13.793 28.3 29.719 28.3 16.422 0 29.789-13.367 29.789-29.792 0-16.426-13.367-29.79-29.79-29.79zm0 0"/></clipPath><symbol overflow="visible" id="s"><path d="M27.531-40.422L44.421 0h-9.358l-3.641-8.672H14.25L10.656 0H1.25l16.875-40.422zm.64 23.89L22.86-29.25l-5.297 12.719zm0 0"/></symbol><symbol overflow="visible" id="p"><path d="M25.547-40.422h8.61v25.828c0 2.012-.423 3.95-1.266 5.813a15.764 15.764 0 01-3.422 4.906c-1.438 1.406-3.121 2.527-5.047 3.36-1.918.831-3.977 1.25-6.172 1.25-2.168 0-4.227-.419-6.172-1.25-1.937-.833-3.621-1.954-5.047-3.36a16.28 16.28 0 01-3.39-4.906 14.046 14.046 0 01-1.25-5.813v-25.828H11v24.11a9.2 9.2 0 00.563 3.234 9.42 9.42 0 001.546 2.672 7.205 7.205 0 002.313 1.86 6.227 6.227 0 002.828.671 6.14 6.14 0 002.844-.672 7.746 7.746 0 002.312-1.86 8.938 8.938 0 001.563-2.671 9.034 9.034 0 00.578-3.235zm0 0"/></symbol><symbol overflow="visible" id="t"><path d="M8.813-15.25c1.218 0 2.32.2 3.312.594A7.53 7.53 0 0114.688-13c.707.7 1.253 1.547 1.64 2.547.395.992.594 2.09.594 3.297 0 .71-.07 1.32-.203 1.828-.125.5-.29.922-.485 1.266a3.007 3.007 0 01-1.203 1.188 2.664 2.664 0 01-1.187.265c-.469 0-.922-.11-1.36-.329a3.516 3.516 0 01-1.14-.984 3.999 3.999 0 01-1.25.875 3.772 3.772 0 01-1.563.313 4.15 4.15 0 01-1.656-.329 4.197 4.197 0 01-1.328-.921 4.523 4.523 0 01-.906-1.344 4.102 4.102 0 01-.329-1.64c0-.595.11-1.145.329-1.657.226-.508.53-.957.906-1.344a4.093 4.093 0 011.328-.906 4.03 4.03 0 011.656-.344c.446 0 .875.074 1.281.219.407.137.77.328 1.094.578 0-.082.008-.164.031-.25.032-.062.067-.129.11-.203a.517.517 0 01.25-.172l1.64.172-.374 4.484v.172c0 .25.035.48.109.688.07.199.172.367.297.5.133.136.273.246.422.328.156.074.304.11.453.11.3 0 .547-.208.734-.626.195-.414.317-.957.36-1.625 0-1.176-.172-2.172-.516-2.984-.344-.82-.805-1.488-1.375-2a5.004 5.004 0 00-1.953-1.094 7.665 7.665 0 00-2.281-.344 5.65 5.65 0 00-2.344.5 6.39 6.39 0 00-3.281 3.36A6.006 6.006 0 002.703-7a6.3 6.3 0 00.469 2.453c.32.75.765 1.402 1.328 1.953.57.543 1.242.969 2.016 1.281.78.305 1.64.454 2.578.454.844 0 1.633-.157 2.375-.47L12.219.5a8.022 8.022 0 01-3.14.64c-1.22 0-2.345-.21-3.376-.624a8.154 8.154 0 01-2.64-1.704 7.731 7.731 0 01-1.735-2.578C.922-4.766.718-5.844.718-7c0-1.102.212-2.156.641-3.156a8.49 8.49 0 011.735-2.625 8.279 8.279 0 012.578-1.797 7.561 7.561 0 013.14-.672zM8.53-4.719c.344 0 .64-.066.89-.203.259-.133.47-.305.626-.516.164-.207.285-.44.36-.703.07-.27.109-.546.109-.828 0-.27-.04-.539-.11-.812a2.04 2.04 0 00-.36-.719 1.861 1.861 0 00-1.515-.719c-.312 0-.605.063-.875.188a2.264 2.264 0 00-.718.484c-.2.2-.36.434-.485.703a2.186 2.186 0 00-.172.875c0 .305.055.594.172.875.125.274.285.512.484.719.208.2.446.36.72.484.269.118.562.172.874.172zm0 0"/></symbol><symbol overflow="visible" id="o"><path d="M21.781-41c2.739 0 5.32.555 7.75 1.656a20.084 20.084 0 016.36 4.516c1.8 1.898 3.222 4.101 4.265 6.61 1.051 2.511 1.578 5.187 1.578 8.03 0 2.813-.527 5.497-1.578 8.047-1.043 2.543-2.465 4.766-4.265 6.672-1.805 1.899-3.922 3.407-6.36 4.532C27.101.175 24.52.734 21.781.734c-2.742 0-5.328-.558-7.765-1.671-2.43-1.125-4.54-2.633-6.329-4.532-1.78-1.906-3.199-4.129-4.25-6.672a21.073 21.073 0 01-1.562-8.046c0-2.844.52-5.52 1.563-8.032 1.05-2.508 2.468-4.71 4.25-6.61a19.866 19.866 0 016.328-4.515C16.453-40.445 19.039-41 21.78-41zm0 33.125c1.563 0 3.024-.32 4.39-.969a11.433 11.433 0 003.579-2.64 12.55 12.55 0 002.422-3.907c.594-1.488.89-3.086.89-4.796 0-1.708-.296-3.313-.89-4.813-.586-1.5-1.39-2.813-2.422-3.938a11.421 11.421 0 00-3.578-2.656 10.16 10.16 0 00-4.39-.968c-1.563 0-3.028.324-4.391.968a11.53 11.53 0 00-3.594 2.657C12.773-27.813 11.969-26.5 11.375-25c-.594 1.5-.89 3.105-.89 4.813 0 1.71.296 3.308.89 4.796a12.846 12.846 0 002.422 3.907 11.542 11.542 0 003.594 2.64c1.363.649 2.828.969 4.39.969zm0 0"/></symbol><symbol overflow="visible" id="q"><path d="M1.313-40.422h29.25v7.86h-10.33V0h-8.609v-32.563H1.312zm0 0"/></symbol><symbol overflow="visible" id="r"><path d="M19.047-40.422c2.926 0 5.508.531 7.75 1.594 2.238 1.062 4.11 2.512 5.61 4.344 1.507 1.824 2.648 3.968 3.421 6.437.781 2.469 1.172 5.09 1.172 7.86 0 2.812-.414 5.449-1.234 7.906-.813 2.449-1.946 4.586-3.391 6.406-1.438 1.824-3.148 3.262-5.125 4.313C25.27-.52 23.125 0 20.812 0H2.735v-40.422zm.047 32.61c1.633 0 3.031-.333 4.187-1a8.536 8.536 0 002.89-2.704c.759-1.144 1.317-2.457 1.673-3.937.363-1.477.547-3.035.547-4.672 0-1.633-.172-3.203-.516-4.703-.336-1.5-.883-2.817-1.64-3.953a8.709 8.709 0 00-2.922-2.75c-1.18-.688-2.586-1.032-4.22-1.032h-7.687v24.75zm0 0"/></symbol><linearGradient id="j" gradientUnits="userSpaceOnUse" x1=".028" y1="0" x2=".295" y2="0" gradientTransform="translate(7.717 215.04) scale(89.23234)"><stop offset="0" stop-color="#019ecb"/><stop offset=".031" stop-color="#019ecb"/><stop offset=".047" stop-color="#019ecb"/><stop offset=".063" stop-color="#019dca"/><stop offset=".078" stop-color="#019dca"/><stop offset=".094" stop-color="#029cca"/><stop offset=".109" stop-color="#029cca"/><stop offset=".125" stop-color="#029bca"/><stop offset=".141" stop-color="#029bca"/><stop offset=".156" stop-color="#029aca"/><stop offset=".172" stop-color="#029aca"/><stop offset=".188" stop-color="#0399ca"/><stop offset=".203" stop-color="#0399ca"/><stop offset=".219" stop-color="#0398c9"/><stop offset=".234" stop-color="#0398c9"/><stop offset=".25" stop-color="#0397c9"/><stop offset=".266" stop-color="#0397c9"/><stop offset=".281" stop-color="#0496c9"/><stop offset=".313" stop-color="#0496c9"/><stop offset=".328" stop-color="#0496c9"/><stop offset=".344" stop-color="#0495c8"/><stop offset=".359" stop-color="#0495c8"/><stop offset=".375" stop-color="#0594c8"/><stop offset=".391" stop-color="#0594c8"/><stop offset=".406" stop-color="#0593c8"/><stop offset=".422" stop-color="#0593c8"/><stop offset=".438" stop-color="#0692c8"/><stop offset=".453" stop-color="#0692c8"/><stop offset=".469" stop-color="#0691c8"/><stop offset=".484" stop-color="#0691c8"/><stop offset=".5" stop-color="#0690c7"/><stop offset=".516" stop-color="#0690c7"/><stop offset=".531" stop-color="#078fc7"/><stop offset=".547" stop-color="#078fc7"/><stop offset=".563" stop-color="#078ec7"/><stop offset=".578" stop-color="#078ec7"/><stop offset=".594" stop-color="#078dc7"/><stop offset=".609" stop-color="#078dc7"/><stop offset=".625" stop-color="#088cc7"/><stop offset=".641" stop-color="#088cc7"/><stop offset=".656" stop-color="#088bc6"/><stop offset=".672" stop-color="#088bc6"/><stop offset=".688" stop-color="#088ac6"/><stop offset=".703" stop-color="#088ac6"/><stop offset=".719" stop-color="#0989c6"/><stop offset=".734" stop-color="#0989c6"/><stop offset=".75" stop-color="#0988c6"/><stop offset=".766" stop-color="#0988c6"/><stop offset=".781" stop-color="#0987c5"/><stop offset=".797" stop-color="#0987c5"/><stop offset=".813" stop-color="#0a87c5"/><stop offset=".828" stop-color="#0a87c5"/><stop offset=".844" stop-color="#0a86c5"/><stop offset=".859" stop-color="#0a86c5"/><stop offset=".875" stop-color="#0b85c5"/><stop offset=".891" stop-color="#0b85c5"/><stop offset=".906" stop-color="#0b84c5"/><stop offset=".922" stop-color="#0b84c5"/><stop offset=".938" stop-color="#0b83c4"/><stop offset=".953" stop-color="#0b83c4"/><stop offset=".969" stop-color="#0c82c4"/><stop offset=".984" stop-color="#0c82c4"/><stop offset="1" stop-color="#0c81c4"/></linearGradient><linearGradient id="h" gradientUnits="userSpaceOnUse" x1=".567" y1="0" x2=".896" y2="0" gradientTransform="translate(7.717 164.177) scale(89.23234)"><stop offset="0" stop-color="#1862bd"/><stop offset=".016" stop-color="#1862bd"/><stop offset=".023" stop-color="#1862bd"/><stop offset=".031" stop-color="#1861bd"/><stop offset=".039" stop-color="#1861bd"/><stop offset=".047" stop-color="#1861bc"/><stop offset=".055" stop-color="#1861bc"/><stop offset=".063" stop-color="#1960bc"/><stop offset=".094" stop-color="#195fbc"/><stop offset=".102" stop-color="#195fbc"/><stop offset=".109" stop-color="#195ebc"/><stop offset=".117" stop-color="#195ebc"/><stop offset=".125" stop-color="#1a5ebc"/><stop offset=".133" stop-color="#1a5ebc"/><stop offset=".141" stop-color="#1a5dbc"/><stop offset=".148" stop-color="#1a5dbc"/><stop offset=".156" stop-color="#1a5dbb"/><stop offset=".164" stop-color="#1a5dbb"/><stop offset=".172" stop-color="#1a5cbb"/><stop offset=".18" stop-color="#1a5cbb"/><stop offset=".188" stop-color="#1a5bbb"/><stop offset=".195" stop-color="#1a5bbb"/><stop offset=".203" stop-color="#1b5bbb"/><stop offset=".211" stop-color="#1b5bbb"/><stop offset=".219" stop-color="#1b5abb"/><stop offset=".234" stop-color="#1b5abb"/><stop offset=".242" stop-color="#1b5abb"/><stop offset=".25" stop-color="#1b59bb"/><stop offset=".258" stop-color="#1b59bb"/><stop offset=".266" stop-color="#1c59bb"/><stop offset=".273" stop-color="#1c59bb"/><stop offset=".281" stop-color="#1c58ba"/><stop offset=".289" stop-color="#1c58ba"/><stop offset=".297" stop-color="#1c57ba"/><stop offset=".313" stop-color="#1c57ba"/><stop offset=".32" stop-color="#1c57ba"/><stop offset=".328" stop-color="#1c56ba"/><stop offset=".336" stop-color="#1c56ba"/><stop offset=".344" stop-color="#1d56ba"/><stop offset=".352" stop-color="#1d56ba"/><stop offset=".359" stop-color="#1d55ba"/><stop offset=".367" stop-color="#1d55ba"/><stop offset=".375" stop-color="#1d54ba"/><stop offset=".383" stop-color="#1d54ba"/><stop offset=".391" stop-color="#1d54b9"/><stop offset=".398" stop-color="#1d54b9"/><stop offset=".406" stop-color="#1e53b9"/><stop offset=".438" stop-color="#1e52b9"/><stop offset=".453" stop-color="#1e52b9"/><stop offset=".461" stop-color="#1e52b9"/><stop offset=".469" stop-color="#1e51b9"/><stop offset=".477" stop-color="#1e51b9"/><stop offset=".484" stop-color="#1f50b9"/><stop offset=".5" stop-color="#1f50b9"/><stop offset=".508" stop-color="#1f50b9"/><stop offset=".516" stop-color="#1f4fb8"/><stop offset=".531" stop-color="#1f4fb8"/><stop offset=".539" stop-color="#1f4fb8"/><stop offset=".547" stop-color="#1f4eb8"/><stop offset=".563" stop-color="#1f4eb8"/><stop offset=".57" stop-color="#204eb8"/><stop offset=".578" stop-color="#204db8"/><stop offset=".586" stop-color="#204db8"/><stop offset=".594" stop-color="#204cb8"/><stop offset=".609" stop-color="#204cb8"/><stop offset=".617" stop-color="#204cb8"/><stop offset=".625" stop-color="#214bb7"/><stop offset=".641" stop-color="#214bb7"/><stop offset=".648" stop-color="#214bb7"/><stop offset=".656" stop-color="#214ab7"/><stop offset=".672" stop-color="#214ab7"/><stop offset=".68" stop-color="#214ab7"/><stop offset=".688" stop-color="#2149b7"/><stop offset=".695" stop-color="#2149b7"/><stop offset=".703" stop-color="#2248b7"/><stop offset=".719" stop-color="#2248b7"/><stop offset=".727" stop-color="#2248b7"/><stop offset=".734" stop-color="#2247b7"/><stop offset=".742" stop-color="#2247b7"/><stop offset=".75" stop-color="#2247b6"/><stop offset=".758" stop-color="#2247b6"/><stop offset=".766" stop-color="#2346b6"/><stop offset=".781" stop-color="#2346b6"/><stop offset=".789" stop-color="#2346b6"/><stop offset=".797" stop-color="#2345b6"/><stop offset=".805" stop-color="#2345b6"/><stop offset=".813" stop-color="#2344b6"/><stop offset=".828" stop-color="#2344b6"/><stop offset=".836" stop-color="#2344b6"/><stop offset=".844" stop-color="#2443b6"/><stop offset=".852" stop-color="#2443b6"/><stop offset=".859" stop-color="#2443b5"/><stop offset=".867" stop-color="#2443b5"/><stop offset=".875" stop-color="#2442b5"/><stop offset=".883" stop-color="#2442b5"/><stop offset=".891" stop-color="#2441b5"/><stop offset=".898" stop-color="#2441b5"/><stop offset=".906" stop-color="#2541b5"/><stop offset=".914" stop-color="#2541b5"/><stop offset=".922" stop-color="#2540b5"/><stop offset=".938" stop-color="#2540b5"/><stop offset=".945" stop-color="#2540b5"/><stop offset=".953" stop-color="#253fb5"/><stop offset=".969" stop-color="#253fb5"/><stop offset=".977" stop-color="#253fb5"/><stop offset=".984" stop-color="#263eb4"/><stop offset=".992" stop-color="#263eb4"/><stop offset="1" stop-color="#263db4"/></linearGradient><linearGradient id="l" gradientUnits="userSpaceOnUse" x1=".028" y1="0" x2=".295" y2="0" gradientTransform="translate(7.717 220.998) scale(89.23234)"><stop offset="0" stop-color="#019ecb"/><stop offset=".031" stop-color="#019ecb"/><stop offset=".047" stop-color="#019ecb"/><stop offset=".063" stop-color="#019dca"/><stop offset=".078" stop-color="#019dca"/><stop offset=".094" stop-color="#029cca"/><stop offset=".109" stop-color="#029cca"/><stop offset=".125" stop-color="#029bca"/><stop offset=".141" stop-color="#029bca"/><stop offset=".156" stop-color="#029aca"/><stop offset=".172" stop-color="#029aca"/><stop offset=".188" stop-color="#0399ca"/><stop offset=".203" stop-color="#0399ca"/><stop offset=".219" stop-color="#0398c9"/><stop offset=".234" stop-color="#0398c9"/><stop offset=".25" stop-color="#0397c9"/><stop offset=".266" stop-color="#0397c9"/><stop offset=".281" stop-color="#0496c9"/><stop offset=".313" stop-color="#0496c9"/><stop offset=".328" stop-color="#0496c9"/><stop offset=".344" stop-color="#0495c8"/><stop offset=".359" stop-color="#0495c8"/><stop offset=".375" stop-color="#0594c8"/><stop offset=".391" stop-color="#0594c8"/><stop offset=".406" stop-color="#0593c8"/><stop offset=".422" stop-color="#0593c8"/><stop offset=".438" stop-color="#0692c8"/><stop offset=".453" stop-color="#0692c8"/><stop offset=".469" stop-color="#0691c8"/><stop offset=".484" stop-color="#0691c8"/><stop offset=".5" stop-color="#0690c7"/><stop offset=".516" stop-color="#0690c7"/><stop offset=".531" stop-color="#078fc7"/><stop offset=".547" stop-color="#078fc7"/><stop offset=".563" stop-color="#078ec7"/><stop offset=".578" stop-color="#078ec7"/><stop offset=".594" stop-color="#078dc7"/><stop offset=".609" stop-color="#078dc7"/><stop offset=".625" stop-color="#088cc7"/><stop offset=".641" stop-color="#088cc7"/><stop offset=".656" stop-color="#088bc6"/><stop offset=".672" stop-color="#088bc6"/><stop offset=".688" stop-color="#088ac6"/><stop offset=".703" stop-color="#088ac6"/><stop offset=".719" stop-color="#0989c6"/><stop offset=".734" stop-color="#0989c6"/><stop offset=".75" stop-color="#0988c6"/><stop offset=".766" stop-color="#0988c6"/><stop offset=".781" stop-color="#0987c5"/><stop offset=".797" stop-color="#0987c5"/><stop offset=".813" stop-color="#0a87c5"/><stop offset=".828" stop-color="#0a87c5"/><stop offset=".844" stop-color="#0a86c5"/><stop offset=".859" stop-color="#0a86c5"/><stop offset=".875" stop-color="#0b85c5"/><stop offset=".891" stop-color="#0b85c5"/><stop offset=".906" stop-color="#0b84c5"/><stop offset=".922" stop-color="#0b84c5"/><stop offset=".938" stop-color="#0b83c4"/><stop offset=".953" stop-color="#0b83c4"/><stop offset=".969" stop-color="#0c82c4"/><stop offset=".984" stop-color="#0c82c4"/><stop offset="1" stop-color="#0c81c4"/></linearGradient><linearGradient id="d" gradientUnits="userSpaceOnUse" x1="-.006" y1="0" x2=".996" y2="0" gradientTransform="translate(7.717 191.207) scale(89.23234)"><stop offset="0" stop-color="#00a1cb"/><stop offset=".016" stop-color="#00a1cb"/><stop offset=".02" stop-color="#00a0cb"/><stop offset=".023" stop-color="#00a0cb"/><stop offset=".031" stop-color="#009fcb"/><stop offset=".035" stop-color="#019fcb"/><stop offset=".039" stop-color="#019ecb"/><stop offset=".043" stop-color="#019ecb"/><stop offset=".047" stop-color="#019dcb"/><stop offset=".051" stop-color="#019dca"/><stop offset=".055" stop-color="#019cca"/><stop offset=".059" stop-color="#029cca"/><stop offset=".063" stop-color="#029cca"/><stop offset=".066" stop-color="#029cca"/><stop offset=".07" stop-color="#029bca"/><stop offset=".074" stop-color="#029bca"/><stop offset=".078" stop-color="#029aca"/><stop offset=".082" stop-color="#039aca"/><stop offset=".086" stop-color="#0399ca"/><stop offset=".09" stop-color="#0398c9"/><stop offset=".094" stop-color="#0398c9"/><stop offset=".098" stop-color="#0397c9"/><stop offset=".102" stop-color="#0397c9"/><stop offset=".105" stop-color="#0496c9"/><stop offset=".109" stop-color="#0496c9"/><stop offset=".113" stop-color="#0495c9"/><stop offset=".117" stop-color="#0495c9"/><stop offset=".121" stop-color="#0495c8"/><stop offset=".125" stop-color="#0495c8"/><stop offset=".129" stop-color="#0594c8"/><stop offset=".133" stop-color="#0594c8"/><stop offset=".137" stop-color="#0593c8"/><stop offset=".141" stop-color="#0593c8"/><stop offset=".148" stop-color="#0592c8"/><stop offset=".152" stop-color="#0692c8"/><stop offset=".156" stop-color="#0691c8"/><stop offset=".16" stop-color="#0691c7"/><stop offset=".164" stop-color="#0690c7"/><stop offset=".168" stop-color="#0690c7"/><stop offset=".172" stop-color="#068fc7"/><stop offset=".176" stop-color="#068fc7"/><stop offset=".18" stop-color="#078ec7"/><stop offset=".188" stop-color="#078ec7"/><stop offset=".191" stop-color="#078ec7"/><stop offset=".195" stop-color="#078dc7"/><stop offset=".199" stop-color="#078dc6"/><stop offset=".203" stop-color="#088cc6"/><stop offset=".207" stop-color="#088bc6"/><stop offset=".211" stop-color="#088bc6"/><stop offset=".215" stop-color="#088ac6"/><stop offset=".219" stop-color="#098ac6"/><stop offset=".223" stop-color="#0989c6"/><stop offset=".227" stop-color="#0989c6"/><stop offset=".23" stop-color="#0988c6"/><stop offset=".234" stop-color="#0988c6"/><stop offset=".238" stop-color="#0987c5"/><stop offset=".242" stop-color="#0a87c5"/><stop offset=".25" stop-color="#0a87c5"/><stop offset=".254" stop-color="#0a86c5"/><stop offset=".258" stop-color="#0a86c5"/><stop offset=".262" stop-color="#0a85c5"/><stop offset=".266" stop-color="#0b85c5"/><stop offset=".27" stop-color="#0b85c5"/><stop offset=".273" stop-color="#0b84c5"/><stop offset=".277" stop-color="#0b84c5"/><stop offset=".281" stop-color="#0b83c4"/><stop offset=".285" stop-color="#0b83c4"/><stop offset=".289" stop-color="#0c82c4"/><stop offset=".293" stop-color="#0c82c4"/><stop offset=".297" stop-color="#0c81c4"/><stop offset=".301" stop-color="#0c81c4"/><stop offset=".305" stop-color="#0c80c4"/><stop offset=".309" stop-color="#0c80c4"/><stop offset=".313" stop-color="#0d80c4"/><stop offset=".316" stop-color="#0d7fc4"/><stop offset=".32" stop-color="#0d7fc3"/><stop offset=".324" stop-color="#0d7ec3"/><stop offset=".328" stop-color="#0d7ec3"/><stop offset=".332" stop-color="#0e7dc3"/><stop offset=".336" stop-color="#0e7dc3"/><stop offset=".34" stop-color="#0e7cc3"/><stop offset=".344" stop-color="#0e7cc3"/><stop offset=".348" stop-color="#0e7bc3"/><stop offset=".352" stop-color="#0e7bc3"/><stop offset=".355" stop-color="#0f7ac3"/><stop offset=".359" stop-color="#0f7ac2"/><stop offset=".367" stop-color="#0f7ac2"/><stop offset=".371" stop-color="#0f79c2"/><stop offset=".375" stop-color="#0f78c2"/><stop offset=".379" stop-color="#1078c2"/><stop offset=".383" stop-color="#1078c2"/><stop offset=".387" stop-color="#1078c2"/><stop offset=".391" stop-color="#1077c2"/><stop offset=".395" stop-color="#1077c2"/><stop offset=".398" stop-color="#1076c1"/><stop offset=".402" stop-color="#1176c1"/><stop offset=".406" stop-color="#1175c1"/><stop offset=".41" stop-color="#1175c1"/><stop offset=".414" stop-color="#1174c1"/><stop offset=".418" stop-color="#1174c1"/><stop offset=".422" stop-color="#1173c1"/><stop offset=".426" stop-color="#1272c1"/><stop offset=".43" stop-color="#1272c1"/><stop offset=".434" stop-color="#1271c1"/><stop offset=".438" stop-color="#1271c0"/><stop offset=".445" stop-color="#1271c0"/><stop offset=".449" stop-color="#1370c0"/><stop offset=".453" stop-color="#1370c0"/><stop offset=".457" stop-color="#136fc0"/><stop offset=".461" stop-color="#136fc0"/><stop offset=".465" stop-color="#136ec0"/><stop offset=".469" stop-color="#136ec0"/><stop offset=".473" stop-color="#146dc0"/><stop offset=".477" stop-color="#146dbf"/><stop offset=".484" stop-color="#146dbf"/><stop offset=".488" stop-color="#146cbf"/><stop offset=".492" stop-color="#146bbf"/><stop offset=".496" stop-color="#146bbf"/><stop offset=".5" stop-color="#156abf"/><stop offset=".508" stop-color="#156abf"/><stop offset=".512" stop-color="#156abe"/><stop offset=".516" stop-color="#1569be"/><stop offset=".52" stop-color="#1569be"/><stop offset=".523" stop-color="#1668be"/><stop offset=".527" stop-color="#1668be"/><stop offset=".531" stop-color="#1667be"/><stop offset=".535" stop-color="#1667be"/><stop offset=".539" stop-color="#1666be"/><stop offset=".543" stop-color="#1665be"/><stop offset=".547" stop-color="#1765be"/><stop offset=".551" stop-color="#1764bd"/><stop offset=".555" stop-color="#1764bd"/><stop offset=".559" stop-color="#1763bd"/><stop offset=".563" stop-color="#1763bd"/><stop offset=".566" stop-color="#1763bd"/><stop offset=".57" stop-color="#1863bd"/><stop offset=".574" stop-color="#1862bd"/><stop offset=".578" stop-color="#1862bd"/><stop offset=".582" stop-color="#1861bc"/><stop offset=".586" stop-color="#1861bc"/><stop offset=".59" stop-color="#1860bc"/><stop offset=".594" stop-color="#1960bc"/><stop offset=".602" stop-color="#195fbc"/><stop offset=".605" stop-color="#195fbc"/><stop offset=".609" stop-color="#195ebc"/><stop offset=".613" stop-color="#195ebc"/><stop offset=".617" stop-color="#1a5dbc"/><stop offset=".621" stop-color="#1a5dbb"/><stop offset=".625" stop-color="#1a5cbb"/><stop offset=".633" stop-color="#1a5cbb"/><stop offset=".637" stop-color="#1b5cbb"/><stop offset=".641" stop-color="#1b5bbb"/><stop offset=".645" stop-color="#1b5bbb"/><stop offset=".648" stop-color="#1b5abb"/><stop offset=".652" stop-color="#1b5abb"/><stop offset=".656" stop-color="#1b59bb"/><stop offset=".66" stop-color="#1c58ba"/><stop offset=".664" stop-color="#1c58ba"/><stop offset=".668" stop-color="#1c57ba"/><stop offset=".672" stop-color="#1c57ba"/><stop offset=".676" stop-color="#1c56ba"/><stop offset=".68" stop-color="#1c56ba"/><stop offset=".684" stop-color="#1d55ba"/><stop offset=".688" stop-color="#1d55ba"/><stop offset=".695" stop-color="#1d55ba"/><stop offset=".699" stop-color="#1d54b9"/><stop offset=".703" stop-color="#1d54b9"/><stop offset=".707" stop-color="#1e53b9"/><stop offset=".711" stop-color="#1e53b9"/><stop offset=".719" stop-color="#1e52b9"/><stop offset=".723" stop-color="#1e52b9"/><stop offset=".727" stop-color="#1e51b9"/><stop offset=".73" stop-color="#1f51b9"/><stop offset=".734" stop-color="#1f50b9"/><stop offset=".738" stop-color="#1f50b8"/><stop offset=".742" stop-color="#1f4fb8"/><stop offset=".746" stop-color="#1f4fb8"/><stop offset=".75" stop-color="#1f4eb8"/><stop offset=".758" stop-color="#1f4eb8"/><stop offset=".762" stop-color="#204eb8"/><stop offset=".766" stop-color="#204db8"/><stop offset=".77" stop-color="#204cb8"/><stop offset=".773" stop-color="#204cb8"/><stop offset=".777" stop-color="#204bb8"/><stop offset=".781" stop-color="#214bb7"/><stop offset=".785" stop-color="#214ab7"/><stop offset=".789" stop-color="#214ab7"/><stop offset=".793" stop-color="#2149b7"/><stop offset=".797" stop-color="#2149b7"/><stop offset=".801" stop-color="#2148b7"/><stop offset=".805" stop-color="#2248b7"/><stop offset=".809" stop-color="#2247b7"/><stop offset=".813" stop-color="#2247b7"/><stop offset=".816" stop-color="#2247b7"/><stop offset=".82" stop-color="#2247b6"/><stop offset=".824" stop-color="#2247b6"/><stop offset=".828" stop-color="#2346b6"/><stop offset=".832" stop-color="#2346b6"/><stop offset=".836" stop-color="#2345b6"/><stop offset=".84" stop-color="#2345b6"/><stop offset=".844" stop-color="#2344b6"/><stop offset=".848" stop-color="#2344b6"/><stop offset=".852" stop-color="#2443b6"/><stop offset=".855" stop-color="#2443b6"/><stop offset=".859" stop-color="#2442b5"/><stop offset=".863" stop-color="#2442b5"/><stop offset=".867" stop-color="#2441b5"/><stop offset=".871" stop-color="#2441b5"/><stop offset=".875" stop-color="#2540b5"/><stop offset=".883" stop-color="#2540b5"/><stop offset=".887" stop-color="#253fb5"/><stop offset=".891" stop-color="#253fb5"/><stop offset=".895" stop-color="#253eb5"/><stop offset=".898" stop-color="#263eb4"/><stop offset=".902" stop-color="#263db4"/><stop offset=".906" stop-color="#263db4"/><stop offset=".91" stop-color="#263cb4"/><stop offset=".914" stop-color="#263cb4"/><stop offset=".918" stop-color="#273bb4"/><stop offset=".922" stop-color="#273bb4"/><stop offset=".926" stop-color="#273ab4"/><stop offset=".93" stop-color="#273ab4"/><stop offset=".934" stop-color="#273ab4"/><stop offset=".938" stop-color="#2739b3"/><stop offset=".941" stop-color="#2839b3"/><stop offset=".945" stop-color="#2839b3"/><stop offset=".949" stop-color="#2839b3"/><stop offset=".953" stop-color="#2838b3"/><stop offset=".957" stop-color="#2838b3"/><stop offset=".961" stop-color="#2837b3"/><stop offset=".965" stop-color="#2937b3"/><stop offset=".969" stop-color="#2936b3"/><stop offset=".973" stop-color="#2936b2"/><stop offset=".977" stop-color="#2935b2"/><stop offset=".98" stop-color="#2935b2"/><stop offset=".984" stop-color="#2934b2"/><stop offset=".988" stop-color="#2a34b2"/><stop offset=".992" stop-color="#2a33b2"/><stop offset=".996" stop-color="#2a32b2"/><stop offset="1" stop-color="#2a32b2"/></linearGradient><linearGradient id="n" gradientUnits="userSpaceOnUse" x1=".028" y1="0" x2=".295" y2="0" gradientTransform="translate(7.717 226.956) scale(89.23234)"><stop offset="0" stop-color="#019ecb"/><stop offset=".031" stop-color="#019ecb"/><stop offset=".047" stop-color="#019ecb"/><stop offset=".063" stop-color="#019dca"/><stop offset=".078" stop-color="#019dca"/><stop offset=".094" stop-color="#029cca"/><stop offset=".109" stop-color="#029cca"/><stop offset=".125" stop-color="#029bca"/><stop offset=".141" stop-color="#029bca"/><stop offset=".156" stop-color="#029aca"/><stop offset=".172" stop-color="#029aca"/><stop offset=".188" stop-color="#0399ca"/><stop offset=".203" stop-color="#0399ca"/><stop offset=".219" stop-color="#0398c9"/><stop offset=".234" stop-color="#0398c9"/><stop offset=".25" stop-color="#0397c9"/><stop offset=".266" stop-color="#0397c9"/><stop offset=".281" stop-color="#0496c9"/><stop offset=".313" stop-color="#0496c9"/><stop offset=".328" stop-color="#0496c9"/><stop offset=".344" stop-color="#0495c8"/><stop offset=".359" stop-color="#0495c8"/><stop offset=".375" stop-color="#0594c8"/><stop offset=".391" stop-color="#0594c8"/><stop offset=".406" stop-color="#0593c8"/><stop offset=".422" stop-color="#0593c8"/><stop offset=".438" stop-color="#0692c8"/><stop offset=".453" stop-color="#0692c8"/><stop offset=".469" stop-color="#0691c8"/><stop offset=".484" stop-color="#0691c8"/><stop offset=".5" stop-color="#0690c7"/><stop offset=".516" stop-color="#0690c7"/><stop offset=".531" stop-color="#078fc7"/><stop offset=".547" stop-color="#078fc7"/><stop offset=".563" stop-color="#078ec7"/><stop offset=".578" stop-color="#078ec7"/><stop offset=".594" stop-color="#078dc7"/><stop offset=".609" stop-color="#078dc7"/><stop offset=".625" stop-color="#088cc7"/><stop offset=".641" stop-color="#088cc7"/><stop offset=".656" stop-color="#088bc6"/><stop offset=".672" stop-color="#088bc6"/><stop offset=".688" stop-color="#088ac6"/><stop offset=".703" stop-color="#088ac6"/><stop offset=".719" stop-color="#0989c6"/><stop offset=".734" stop-color="#0989c6"/><stop offset=".75" stop-color="#0988c6"/><stop offset=".766" stop-color="#0988c6"/><stop offset=".781" stop-color="#0987c5"/><stop offset=".797" stop-color="#0987c5"/><stop offset=".813" stop-color="#0a87c5"/><stop offset=".828" stop-color="#0a87c5"/><stop offset=".844" stop-color="#0a86c5"/><stop offset=".859" stop-color="#0a86c5"/><stop offset=".875" stop-color="#0b85c5"/><stop offset=".891" stop-color="#0b85c5"/><stop offset=".906" stop-color="#0b84c5"/><stop offset=".922" stop-color="#0b84c5"/><stop offset=".938" stop-color="#0b83c4"/><stop offset=".953" stop-color="#0b83c4"/><stop offset=".969" stop-color="#0c82c4"/><stop offset=".984" stop-color="#0c82c4"/><stop offset="1" stop-color="#0c81c4"/></linearGradient></defs><g clip-path="url(#a)"><g clip-path="url(#b)"><g clip-path="url(#c)"><path d="M7.219 146.52v89.375h89.375V146.52zm0 0" fill="url(#d)"/></g></g></g><g clip-path="url(#e)"><g clip-path="url(#f)"><g clip-path="url(#g)"><path d="M58.3 155.457v17.438h29.356v-17.438zm0 0" fill="url(#h)"/></g></g></g><g clip-path="url(#i)"><path d="M10.2 213.55v2.981h23.83v-2.98zm0 0" fill="url(#j)"/></g><g clip-path="url(#k)"><path d="M10.2 219.508v2.98h23.83v-2.98zm0 0" fill="url(#l)"/></g><g clip-path="url(#m)"><path d="M10.2 225.465v2.98h23.83v-2.98zm0 0" fill="url(#n)"/></g><use xlink:href="#o" x="98.334" y="221.088" fill="#4b548b"/><use xlink:href="#p" x="141.947" y="221.088" fill="#4b548b"/><use xlink:href="#q" x="178.434" y="221.088" fill="#4b548b"/><use xlink:href="#r" x="210.29" y="221.088" fill="#286181"/><use xlink:href="#s" x="249.228" y="221.088" fill="#286181"/><use xlink:href="#q" x="294.894" y="221.088" fill="#286181"/><use xlink:href="#s" x="326.763" y="221.088" fill="#286181"/><use xlink:href="#t" x="178.427" y="201.75"/><use xlink:href="#t" x="352.781" y="171.425" fill="#286181"/></svg>