<?xml version="1.0" encoding="UTF-8"?>
<svg width="18px" height="18px" viewBox="0 0 18 18" version="1.1" xmlns="http://www.w3.org/2000/svg" xmlns:xlink="http://www.w3.org/1999/xlink">
    <!-- Generator: Sketch 62 (91390) - https://sketch.com -->
    <title>Fill 1</title>
    <desc>Created with Sketch.</desc>
    <g id="Symbols" stroke="none" stroke-width="1" fill="none" fill-rule="evenodd">
        <g id="page-/-nav" transform="translate(-1288.000000, -48.000000)" fill="#0f0f0f" fill-rule="nonzero">
            <path d="M1305.55944,63.4323275 L1301.64895,59.5218409 C1301.62819,59.5011667 1301.60401,59.4866947 1301.58225,59.4674587 C1302.35151,58.3002633 1302.80059,56.9027749 1302.80059,55.4003873 C1302.80059,51.3132708 1299.48741,48 1295.4003,48 C1291.31318,48 1288,51.3132708 1288,55.4003873 C1288,59.4874138 1291.31318,62.8006846 1295.4003,62.8006846 C1296.90277,62.8006846 1298.2999,62.3516043 1299.46701,61.5822531 C1299.48634,61.604006 1299.50072,61.6282758 1299.52184,61.64895 L1303.43233,65.5594366 C1304.01975,66.1468545 1304.97193,66.1468545 1305.55944,65.5594366 C1306.14685,64.9720186 1306.14685,64.0197454 1305.55944,63.4323275 Z M1295.4003,60.2353717 C1292.73,60.2353717 1290.56531,58.0706894 1290.56531,55.4003873 C1290.56531,52.7299952 1292.73,50.565313 1295.4003,50.565313 C1298.0706,50.565313 1300.23528,52.7299952 1300.23528,55.4003873 C1300.23528,58.0706894 1298.0706,60.2353717 1295.4003,60.2353717 Z" id="Fill-1"></path>
        </g>
    </g>
</svg>